<?xml version="1.0" encoding="utf-8"?>
<!-- Generator: Adobe Illustrator 27.4.1, SVG Export Plug-In . SVG Version: 6.00 Build 0)  -->
<svg version="1.1" id="Layer_1" xmlns="http://www.w3.org/2000/svg" xmlns:xlink="http://www.w3.org/1999/xlink" x="0px" y="0px"
	 viewBox="0 0 2732 2048" style="enable-background:new 0 0 2732 2048;" xml:space="preserve">
<style type="text/css">
	.st0{fill:#FFFFFF;}
</style>
<g>
	<g>
		<path class="st0" d="M1288.4,1036.2c-1,1.1-2.4,2.7-3.7,4.2c-2.7-0.8-3.8-2.5-3.8-6.4v-12.4c-1.3-0.4-2.6-1.1-3.3-1.8l-2.1,2.1
			v13.7c0.8,0.5,1.7,0.8,2.7,1.2c-0.9,1.1-1.9,2.4-3,3.6c-2.1-1.4-3.5-2.1-5.6-2.7v-0.4c0.7-0.2,1.3-1,1.3-2.7v-11.2
			c0-2-0.5-3.1-1.5-3.6l-1.3,1.2l-0.4-0.5c1.5-1.4,3.2-2.8,4.5-4.1c1.8,0.9,2.9,2.4,3.4,4.6l4.8-4.6c1.3,1.2,4.3,2.4,6.6,3.1v0.3
			c-0.9,0.5-1.3,1.3-1.3,3.1v10.6c0,2.2,0.3,3.1,1.4,3.3l0.9-1L1288.4,1036.2z"/>
		<path class="st0" d="M1283.8,1041.3l-0.3,0.3c-2.4-0.7-3.8-1.9-3.8-6.7v-12.1c-1-0.3-2-0.8-2.7-1.3l0.3-0.3c0.7,0.5,2,1.1,2.7,1.3
			v12.1C1280.1,1039.4,1281.4,1040.4,1283.8,1041.3z"/>
		<path class="st0" d="M1270,1034.8c0,0.3,0,0.8-0.1,1.2l-0.3,0.4c0-0.4,0-1.2,0-1.5v-10.7c0-1.5-0.3-2.4-0.9-2.9l0.3-0.3
			c0.6,0.6,0.9,1.3,0.9,2.9V1034.8z"/>
		<path class="st0" d="M1274.2,1041.2l-0.3,0.4c-1.4-1-3.8-2.2-5.6-2.7l0.4-0.3C1270.3,1039,1272.6,1040.1,1274.2,1041.2z"/>
		<polygon class="st0" points="1251.3,1021 1251,1021.3 1249.8,1021.3 1249.8,1021 		"/>
		<path class="st0" d="M1243.6,1017.2h-0.4v-0.4c0-1.6-0.3-2.1-1.3-2.4l0.4-0.3c1,0.3,1.3,0.9,1.3,2.4V1017.2z"/>
		<path class="st0" d="M1254.6,1034.6c0,0.4,0,0.8,0,1.1l-0.4,0.3c0-0.3,0-0.7,0-1.1v-13.4l0.4-0.2V1034.6z"/>
		<path class="st0" d="M1253.2,1036.2c-1.7,1.9-2.6,3.1-3.5,4.2c-1.5-1-4.7-2.4-6.6-2.9v-0.3c0.7-0.3,1.3-0.9,1.3-2.7v-14.4h-2.3
			l0.9-2.1h1.4v-2.2c0-1.4-0.3-2.2-1.3-2.5v-0.3c1.4-0.1,3.3-0.8,4.3-1.6c1.2-1,1.9-1.6,2.7-2l0.3,0.4c-1.1,1.1-1.3,2.7-1.3,4.6v3.5
			h3.9l-0.8,2.1h-3.1v15.3c0.8,0.3,2,0.9,2.7,1.4l0.9-1.1L1253.2,1036.2z"/>
		<path class="st0" d="M1262.2,1041.2l-0.3,0.4c-2.3-1.2-5.7-2.7-8.9-3.3l0.4-0.3C1256.3,1038.5,1259.9,1039.9,1262.2,1041.2z"/>
		<path class="st0" d="M1243.6,1035.2c0,0.3,0,0.8-0.1,1.1l-0.3,0.2c0-0.4,0-0.9,0-1.2v-13.9h-2.4l1-2.3l0.4-0.2l-0.9,2.1h2.3
			V1035.2z"/>
		<path class="st0" d="M1248.8,1041.3l-0.3,0.3c-1.4-0.9-4.3-2.2-6.6-3l0.4-0.3C1244.6,1039,1247.6,1040.4,1248.8,1041.3z"/>
		<polygon class="st0" points="1228.3,1026.3 1227.9,1026.6 1224.4,1021.8 1224.7,1021.6 		"/>
		<polygon class="st0" points="1222.6,1021 1222.4,1021.4 1221.2,1021.4 1221.2,1021 		"/>
		<path class="st0" d="M1214.9,1017.4h-0.4v-0.9c0-1.2-0.3-1.7-1.3-2l0.3-0.3c0.9,0.2,1.3,0.9,1.3,2.2V1017.4z"/>
		<path class="st0" d="M1237.9,1041.3l-0.3,0.3c-2.2-0.9-3.2-2.4-3.5-3.5l0.3-0.4C1234.8,1039,1235.7,1040.3,1237.9,1041.3z"/>
		<path class="st0" d="M1224.5,1036.2c-1.7,1.9-2.6,3.1-3.5,4.2c-1.5-1-4.7-2.4-6.6-2.9v-0.3c0.7-0.3,1.3-0.9,1.3-2.7v-14.4h-2.3
			l0.9-2.1h1.4v-2.2c0-1.4-0.3-2.2-1.3-2.5v-0.3c1.4-0.1,3.3-0.8,4.3-1.6c1.2-1,1.9-1.6,2.7-2l0.3,0.4c-1.1,1.1-1.3,2.7-1.3,4.6v3.5
			h3.9l-0.8,2.1h-3.1v15.3c0.8,0.3,1.9,0.9,2.7,1.4l0.9-1.1L1224.5,1036.2z"/>
		<path class="st0" d="M1224.9,1030.8c-0.7,1.2-0.8,2.8-0.7,4.1l-0.5-0.3c0-1.6,0.3-2.7,0.8-3.7L1224.9,1030.8z"/>
		<path class="st0" d="M1229.5,1041.3l-0.4,0.3c-2.1-0.6-4-2.2-4.7-4.1l0.3-0.3C1225.5,1039.1,1227.4,1040.6,1229.5,1041.3z"/>
		<path class="st0" d="M1214.9,1035.2c0,0.3,0,0.8-0.1,1.2l-0.3,0.2c0-0.4,0-1,0-1.3v-13.8h-2.4l1-2.4l0.3-0.1l-0.9,2.1h2.3V1035.2z
			"/>
		<path class="st0" d="M1207.9,1027.4c0,0.6-0.2,1.4-0.4,1.8l-0.1,0.1c0.1-0.3,0.2-1.1,0.2-1.5c0-3.5-1.8-5.6-8.3-6.3l0.2-0.4
			C1205.7,1021.7,1207.9,1023.7,1207.9,1027.4z"/>
		<path class="st0" d="M1220.2,1041.3l-0.3,0.3c-1.6-1-4.7-2.4-6.7-3l0.4-0.3C1215.7,1038.9,1218.4,1040.2,1220.2,1041.3z"/>
		<path class="st0" d="M1197.2,1020.8l-0.2,0.4c-4.2-0.4-9.2-0.8-9.2-5.6c0-1.9,0.6-3,0.9-3.4l0.1,0c-0.2,0.4-0.6,1.6-0.6,3.2
			C1188.2,1020,1193,1020.4,1197.2,1020.8z"/>
		<path class="st0" d="M1203.2,1031.7c0,0.5-0.2,1.2-0.4,1.4l-0.3,0.3c0.2-0.4,0.3-0.9,0.3-1.3c0-2.2-2.1-3.6-7.3-4.2l0.2-0.3
			C1201.3,1028,1203.2,1029.6,1203.2,1031.7z"/>
		<path class="st0" d="M1193.6,1027.2l-0.2,0.4l-1.7-0.2c-4.2-0.4-6.9-1.8-6.9-5.2c0-1,0.3-2.1,0.7-2.8l0.3-0.1
			c-0.4,0.7-0.6,1.7-0.6,2.6c0,4.3,4.3,4.9,7.1,5.2L1193.6,1027.2z"/>
		<path class="st0" d="M1190.2,1032.7l-0.3,0.3c-0.4,0.2-0.9,0.3-1.5,0.3c-1.5,0-3.1-0.9-3.1-2.5c0-0.4,0.2-0.9,0.4-1.2l0.2-0.2
			c-0.1,0.4-0.2,0.6-0.2,1.1c0,1.7,1.6,2.5,3.1,2.5C1189.3,1033,1189.7,1032.9,1190.2,1032.7z"/>
		<path class="st0" d="M1199.3,1041.3l-0.4,0.4c-2.6-2.2-4.9-3.4-9.2-3.4c-0.9,0-1.8,0.1-2.5,0.3l0-0.1c0.6-0.2,1.6-0.5,2.8-0.5
			C1194.6,1037.9,1196.6,1039.1,1199.3,1041.3z"/>
		<path class="st0" d="M1268.2,1023.9l-8.1,5.8v4.8c1.5,0.6,3.6,1.6,5.2,2.4l1.2-1.4l0.5,0.4c-1,1.2-3,3.6-3.8,4.6
			c-2.4-1.3-5.9-2.7-8.9-3.3v-0.3c0.8-0.4,1.2-1,1.2-2.4v-13.9c2.6-1,5.5-2.5,8.4-4.2C1265.1,1019,1266.4,1021.1,1268.2,1023.9z
			 M1264,1025.9l-3.8-6.9l-0.2,0.1v9.7L1264,1025.9z"/>
		<path class="st0" d="M1242.3,1036.2l-3.5,4.2c-2.1-0.9-3.2-2.2-3.8-4.4l-4.6,4.4c-3.6-1.3-5.3-3.8-5.3-7.1c0-3.2,1.7-5.5,4.7-7
			l-4.1-5.6v-0.1c1.3-1.1,2.2-2,3-3.1c0.7,0.7,1.5,1.2,2.4,1.2c1.2,0,2.4-0.9,3.2-2.4c1.6,1.2,4.4,2.4,6.5,3v0.3
			c-0.9,0.3-1.3,1.3-1.3,2.6v10.9c0,2.4,0.1,3.3,1.5,3.7l0.9-1L1242.3,1036.2z M1234.8,1025.4v-3.9c-0.9-0.4-2-1-2.7-1.5
			c-0.8,1.1-1.7,1.8-2.5,1.8c-1,0-1.9-0.2-2.6-0.4l0,0l3.5,4.7C1231.8,1025.6,1233.3,1025.4,1234.8,1025.4z M1234.8,1035.3v-9.1
			c-3.3,0-5.5,1.3-5.5,5c0,2.9,1.6,5,3.7,5.6L1234.8,1035.3z"/>
		<path class="st0" d="M1212,1023.6c0,3.2-1.9,5.8-4.9,9.2c-2.2,2.5-4.3,4.1-7,7.7c-3.1-2.6-5.3-3.4-9.3-3.4c-2.6,0-5.3,0.9-7.8,2.6
			l-0.2-0.1c2.5-4.2,5.4-6.5,12.4-6.5c3.1,0,5.3,0.8,7.7,2.5c3.8-3.9,5.7-5.9,5.7-8.9c0-3.8-2-5.8-9.5-6.5l-1.2,2.1
			c6.2,0.3,8.4,2.1,8.4,5.5c0,1.9-0.8,3.4-2.6,4.5h-0.1c0.2-0.4,0.3-1,0.3-1.3c0-2.4-2.3-3.9-8.5-4.4c-2,3.9-3.8,5.6-5.9,5.6
			c-1.7,0-3.1-0.7-3.1-2.3c0-1.3,0.9-2.2,2.2-2.2c1.2,0,1.9,0.8,1.9,2c0,0.7-0.4,1.2-0.9,1.5c0.1,0,0.3,0,0.5,0
			c1.3,0,2.8-1.6,4.4-4.8c-6.2-0.5-8.7-1.8-8.7-5.3c0-1.4,0.6-2.5,1-3.1l0.2,0c1.1,3.1,5.6,3.8,10,4.1l1.2-2.1
			c-6.7-0.5-9.4-1.8-9.4-5.6c0-4.7,4-8.6,10.3-8.6c4.1,0,6,1.3,8,3.3l1.1-1l0.6,0.6c-2.1,1.7-4.8,4.5-6.6,7
			C1209.9,1016.2,1212,1018.8,1212,1023.6z M1203.4,1013c-1.2-3.3-3.8-5.3-7.1-5.3c-3.1,0-5,1.3-5,3.9c0,2.4,3,3.7,9.9,4.1
			L1203.4,1013z"/>
		<polygon class="st0" points="1262.8,1025.9 1262.4,1026.2 1260.8,1023.3 1260.8,1022.4 		"/>
		<path class="st0" d="M1233.9,1024.7h-0.4v-2.1c-0.5-0.2-1.4-0.6-2-1l0.3-0.3c0.4,0.3,1.4,0.8,2.1,1.1V1024.7z"/>
		<path class="st0" d="M1233.9,1035.1l-0.4,0.3v-8c-0.7,0-1.2,0-1.9,0.3l0.1-0.2c0.5-0.3,1.2-0.5,2.1-0.5V1035.1z"/>
		<path class="st0" d="M1202.2,1013.3l-0.3,0.4c-0.9-2.3-2.9-4.8-6.7-4.8c-0.4,0-0.9,0-1.3,0.1l0.1-0.2c0.3-0.1,0.8-0.3,1.6-0.3
			C1199.3,1008.6,1201.3,1011.2,1202.2,1013.3z"/>
	</g>
	<g>
		<path class="st0" d="M1393.1,1018l-0.4,0.2l-4.4-4.9c-1.3-1.5-3.3-3.1-4.3-3.8l0.3-0.3c1,0.6,2.9,2.2,4.3,3.7L1393.1,1018z"/>
		<path class="st0" d="M1387.4,1035.2l0,0.7l-0.4,0.6c0-0.3,0-0.6,0-1v-12.8l0.4-0.3V1035.2z"/>
		<path class="st0" d="M1393.7,1041.3l-0.4,0.4c-2.1-1.5-4.7-2.6-7.5-2.7l0.4-0.4C1389.3,1038.8,1391.6,1039.9,1393.7,1041.3z"/>
		<path class="st0" d="M1385.6,1036.2c-1,1.1-2.4,2.7-3.7,4.2c-2.7-0.8-3.8-2.5-3.8-6.4v-12.4c-1.3-0.4-2.6-1.1-3.3-1.8l-2.1,2.1
			v13.7c0.8,0.5,1.7,0.8,2.7,1.2c-0.9,1.1-1.9,2.4-3,3.6c-2.1-1.4-3.5-2.1-5.6-2.7v-0.4c0.7-0.2,1.3-1,1.3-2.7v-11.2
			c0-2-0.5-3.1-1.5-3.6l-1.3,1.2l-0.4-0.5c0,0,3.2-2.8,4.5-4.1c1.8,0.9,3,2.4,3.4,4.6l4.8-4.6c1.3,1.2,4.3,2.4,6.6,3.1v0.3
			c-0.9,0.5-1.3,1.3-1.3,3.1v10.6c0,2.2,0.3,3.1,1.4,3.3l0.9-1L1385.6,1036.2z"/>
		<path class="st0" d="M1381.1,1041.3l-0.3,0.3c-2.3-0.6-3.9-1.9-3.9-6.7v-12.1c-1-0.3-2-0.8-2.7-1.3l0.3-0.3c0.7,0.5,2,1.1,2.7,1.3
			v12.1C1377.3,1039.4,1378.7,1040.6,1381.1,1041.3z"/>
		<path class="st0" d="M1367.2,1034.8c0,0.3,0,0.8-0.1,1.2l-0.3,0.4c0-0.4,0-1.2,0-1.5v-10.7c0-1.4-0.4-2.4-0.9-2.9l0.3-0.3
			c0.7,0.5,1,1.5,1,2.9V1034.8z"/>
		<path class="st0" d="M1371.5,1041.3l-0.3,0.4c-1.4-1-3.9-2.3-5.7-2.8l0.4-0.3C1367.5,1039,1369.9,1040.2,1371.5,1041.3z"/>
		<polygon class="st0" points="1350.9,1026.3 1350.5,1026.6 1346.9,1021.8 1347.3,1021.6 		"/>
		<path class="st0" d="M1347.2,1035.8c-1,1.2-3,3.8-3.7,4.6c-1.8-1.3-4.3-2.3-6.4-2.7v-0.3c0.8-0.5,1.2-1.4,1.2-3.1v-20.1
			c0-2.9-0.3-4-1.3-4.4v-0.3c1.4-0.1,2.7-0.6,3.9-1.5c1.2-0.9,2.3-1.8,3.4-2.2l0.3,0.3c-1.6,1.6-1.8,3-1.8,6.8v22.2
			c0.8,0.5,1.9,1,2.7,1.5l0.9-1.2L1347.2,1035.8z"/>
		<path class="st0" d="M1360.5,1041.3l-0.3,0.3c-2.2-0.9-3.2-2.4-3.5-3.5l0.3-0.4C1357.5,1039.1,1358.3,1040.3,1360.5,1041.3z"/>
		<path class="st0" d="M1347.5,1030.8c-0.6,1.3-0.8,2.5-0.7,3.8l-0.5-0.3c0-1.4,0.3-2.4,0.9-3.4L1347.5,1030.8z"/>
		<path class="st0" d="M1337.5,1034.9c0,0.5-0.1,0.9-0.1,1l-0.4,0.5c0.1-0.4,0.1-0.8,0.1-1.2V1015c0-3.1-0.3-3.5-1.2-3.9l0.3-0.3
			c0.9,0.4,1.3,0.9,1.3,3.9V1034.9z"/>
		<path class="st0" d="M1352.1,1041.3l-0.4,0.3c-2.1-0.6-4.1-2.2-4.7-4.1l0.4-0.4C1348.1,1039.1,1350.1,1040.7,1352.1,1041.3z"/>
		<path class="st0" d="M1342.7,1041.3l-0.3,0.4c-1.8-1.2-4-2.2-6.5-2.8l0.4-0.4C1338.8,1039.2,1340.9,1040.1,1342.7,1041.3z"/>
		<path class="st0" d="M1313.2,1011c-1.1,0.7-2.1,1.2-4.1,1.2c-1.7,0-3.1-1.3-5-1.3c-0.2,0-0.4,0-0.6,0c0.2-0.2,0.6-0.4,0.9-0.4
			c1.9,0,3.4,1.3,5.1,1.3C1310.9,1011.8,1312.4,1011.2,1313.2,1011L1313.2,1011z"/>
		<path class="st0" d="M1319.6,1025.1c0,0.4,0,0.6-0.2,1l-0.3,0.2l0-0.7v-4.2l0.4-0.4V1025.1z"/>
		<polygon class="st0" points="1323,1030.4 1322.6,1030.7 1318,1028.6 1318.4,1028.3 		"/>
		<path class="st0" d="M1305.3,1017.6c-0.1,0.2-0.4,0.8-0.5,1.8h-0.3c0.1-0.9,0.4-1.4,0.6-1.7L1305.3,1017.6z"/>
		<path class="st0" d="M1311.7,1014.2c-0.3,0.8-0.6,1.8-0.6,3v18.7l-0.4-0.2v-18.1c0-1.7,0.3-2.7,0.7-3.2L1311.7,1014.2z"/>
		<path class="st0" d="M1318.7,1006.9c-1.5,1.3-2,3.1-2,5.3v18.4c0,1.8,0.6,2.5,1.3,2.7v0.3c-2.2,1.5-7.6,5.3-9.4,7.1
			c-1.2-1-2.6-1.7-4.8-1.7c-1.6,0-3.7,0.2-5.2,1.6l-0.2-0.1c0.6-3.1,3.8-5.4,6.9-5.4c3,0,4.9,1.1,6.3,2.4l0.4-0.3v-20.7
			c0-3.1,1.4-4.9,4.6-7.9l-0.1-0.1c-1.2,1.1-3.7,2.6-6.2,2.6c-1.9,0-3-1.3-5.1-1.3c-1.5,0-2.5,0.9-3.4,1.8l-0.3-0.2
			c1.1-3.1,3.9-5.3,6.6-5.3c2.2,0,4.6,1.6,6.9,1.6c0.9,0,2.6-0.5,3.5-0.9L1318.7,1006.9z"/>
		<path class="st0" d="M1311.1,1012.9c-0.9,1.1-1.3,2.9-1.3,5.6v7.2c0,4.7-0.8,7.3-5.6,8.3l-0.1-0.2c1-1.1,1.5-2.4,1.5-4.9v-4.2
			h-0.8c-1.6,0-2.5,0.6-2.8,1.9h-0.2c-0.4-0.6-0.6-1.4-0.6-2.5c0-2.5,1.4-4,3.7-4h0.8v-0.4c0-3.2,1.7-5,5.4-6.8L1311.1,1012.9z"/>
		<path class="st0" d="M1325.8,1041.3l-0.4,0.4c-1-1.2-2.5-2.1-4.3-2.1c-0.4,0-0.6,0-1.1,0.1l0.1-0.1c0.2-0.1,0.6-0.3,1.3-0.3
			C1323.2,1039.2,1324.8,1040.1,1325.8,1041.3z"/>
		<path class="st0" d="M1304.7,1030.3c0,0.6-0.1,1.3-0.4,1.9h0c0-0.3,0.1-0.9,0.1-1.5v-4.8c-0.4,0-0.9,0-1.3,0.1l0.1-0.2
			c0.2-0.2,0.6-0.4,1-0.4h0.5V1030.3z"/>
		<path class="st0" d="M1300.9,1027.4l-0.4,0.3c-0.5-0.7-0.6-1.5-0.6-2.5c0-1,0.3-1.7,0.5-1.9l0.2-0.1c-0.2,0.4-0.3,1.1-0.3,1.6
			C1300.3,1026,1300.6,1026.8,1300.9,1027.4z"/>
		<path class="st0" d="M1307.7,1041.5l-0.4,0.3c-1.3-1-2.4-1.7-4.7-1.7c-0.6,0-1.4,0-1.8,0.1l0.1-0.1c0.5-0.2,1.2-0.4,2.1-0.4
			C1305.3,1039.8,1306.6,1040.6,1307.7,1041.5z"/>
		<path class="st0" d="M1404,1021.2c-0.9,0.3-1.2,1.2-1.2,3v11.4c-2.7,1.2-4.6,2.2-8.3,4.9c-1.8-1.3-4.5-2.6-7.4-2.7v-0.3
			c0.9-0.4,1.2-1.5,1.2-2.7v-13c1.9-1,4.3-2.4,6.4-3.7l-4.7-5.3c-1.6-1.8-3.1-3.2-4.7-4.2v-0.1c2.5-0.2,5.1-1.1,6.3-2.1h0.1v0.6
			c0,1.2,0.8,2.2,1.9,3.5l8,8.6c0.6,0.6,1.3,1.3,2.4,2V1021.2z M1398.1,1037.2v-15.5l-3-3.2c-1,0.6-1.5,1.1-2.2,1.5v15.1
			c1.5,0.4,3.7,1.5,4.7,2.4L1398.1,1037.2z"/>
		<path class="st0" d="M1364.9,1036.2l-3.5,4.2c-2.1-0.9-3.2-2.2-3.8-4.4l-4.6,4.4c-3.6-1.3-5.3-3.8-5.3-7.1c0-3.2,1.7-5.5,4.7-7
			l-4.1-5.6v-0.1c1.3-1.1,2.2-2,3-3.1c0.6,0.7,1.3,1.2,2.4,1.2c1.2,0,2.4-1,3.2-2.4c1.6,1.2,4.4,2.4,6.5,3v0.3
			c-0.9,0.3-1.3,1.3-1.3,2.6v10.9c0,2.4,0.1,3.3,1.5,3.7l0.9-1L1364.9,1036.2z M1357.4,1025.4v-3.9c-0.9-0.4-2-1-2.7-1.5
			c-0.6,1-1.8,1.8-2.5,1.8c-1,0-1.9-0.2-2.6-0.4l0,0l3.5,4.7C1354.4,1025.6,1355.9,1025.4,1357.4,1025.4z M1357.4,1035.3v-9.1
			c-3.3,0-5.5,1.3-5.5,5c0,2.9,1.6,5,3.7,5.6L1357.4,1035.3z"/>
		<path class="st0" d="M1336.1,1028.7c-0.8,0.3-1.2,1.1-1.2,2.6v5.2c-2.5,0.7-5.6,2-8.2,3.9c-1.2-1.5-2.9-2.1-4.4-2.1
			c-1.8,0-3.7,0.7-4.5,1.9l-0.4-0.1c0.6-4.4,4.7-8,7.3-10.3l-5.4-2.4v-0.3c0.9-0.4,1.2-1,1.2-2.8v-4.1c3.2-0.9,5.3-1.8,8.3-3.8
			c0.9,1,2.3,1.5,3.2,1.5c1.2,0,2.3-0.5,2.8-1.4l0.4,0.2c-0.5,3.7-2.5,5.8-5.2,8.8l6,2.8V1028.7z M1333.8,1019.2L1333.8,1019.2
			c-1.1,1.1-2.9,2.1-4.3,2.1c-1.9,0-2.9-1-3.8-2.4l-0.5,0.3v6l3,1.3C1332.3,1021.8,1333,1021,1333.8,1019.2z M1330.2,1037.6v-6.8
			l-3.5-1.8c-3.3,3.1-5.6,5.2-6.7,7.3l0.1,0c1.5-1.1,2.9-1.5,4.6-1.5c2.2,0,4.1,1.2,5.5,2.8L1330.2,1037.6z"/>
		<polygon class="st0" points="1397.3,1036.2 1396.9,1036 1396.9,1022.8 1394.3,1020.1 1394.7,1019.8 1397.3,1022.6 		"/>
		<path class="st0" d="M1356.5,1024.7h-0.4v-2.1c-0.5-0.2-1.4-0.6-2-1.1l0.3-0.3c0.4,0.3,1.4,0.8,2.1,1.1V1024.7z"/>
		<path class="st0" d="M1356.5,1035.1l-0.4,0.3v-8c-0.7,0-1.2,0-1.9,0.3l0.1-0.2c0.5-0.3,1.2-0.5,2.1-0.5V1035.1z"/>
		<path class="st0" d="M1330.5,1021.8l-0.1,0.2c-0.4,0.3-1.2,0.6-1.8,0.6c-0.9,0-1.6-0.1-2.2-0.5v-0.7c0.7,0.5,1.2,0.7,2.3,0.7
			C1329.2,1022.1,1330.1,1021.9,1330.5,1021.8z"/>
		<polygon class="st0" points="1329.3,1035.8 1328.9,1035.5 1328.9,1032 1326.3,1030.7 1326.6,1030.3 1329.3,1031.6 		"/>
		<path class="st0" d="M1412.4,1040.4"/>
	</g>
	<g>
		<path class="st0" d="M1411.6,1040.4"/>
		<path class="st0" d="M1532.4,1022.2l-0.3,0.3c-0.4,0.2-0.9,0.4-1.7,0.4c-0.9,0-1.6-0.2-2.1-0.4v-0.6c0.7,0.4,1.4,0.6,2.4,0.6
			C1531.5,1022.4,1531.9,1022.4,1532.4,1022.2z"/>
		<path class="st0" d="M1536.1,1034.6c0,0.4,0,0.8,0,1.1l-0.4,0.3c0-0.3,0-0.7,0-1.1v-13.5l0.4-0.2V1034.6z"/>
		<path class="st0" d="M1535.9,1018c-0.6,2.1-1.8,3.5-4.2,3.5c-1.8,0-3-0.7-4-2.3l-0.2,0v15.4c1.8,0.6,3.3,1.3,4.7,1.9l1.2-1.5
			l0.5,0.4l-3.9,4.9c-2.8-1.4-5.6-2.4-8.5-3.2v-0.3c0.9-0.3,1.2-1.2,1.2-2.8v-13.9c2.7-0.5,6-2.3,8-4c0.9,1.3,2.1,1.9,3.1,1.9
			c0.9,0,1.5-0.1,2-0.3L1535.9,1018z"/>
		<path class="st0" d="M1543.9,1041.3l-0.3,0.4c-2.3-1.2-5.8-2.7-9.1-3.3l0.4-0.4C1537.9,1038.5,1541.5,1040,1543.9,1041.3z"/>
		<path class="st0" d="M1521.9,1034.8c0,0.5-0.1,0.9-0.3,1.2l-0.2,0.2c0-0.2,0-0.7,0-1.2v-13.7l0.4-0.4V1034.8z"/>
		<path class="st0" d="M1529.2,1041.3l-0.3,0.4c-3-1.4-5.8-2.5-8.6-3.2l0.4-0.4C1524,1039,1526.7,1040.1,1529.2,1041.3z"/>
		<path class="st0" d="M1520.6,1036.1c-1,1.1-2.4,2.7-3.7,4.2c-2.7-0.8-3.8-2.5-3.8-6.4v-12.4c-1.3-0.4-2.6-1.1-3.3-1.8l-2.1,2.1
			v13.7c0.8,0.5,1.7,0.8,2.6,1.2c-0.9,1.1-1.9,2.4-2.9,3.6c-2.1-1.4-3.5-2.1-5.6-2.7v-0.4c0.7-0.2,1.3-1,1.3-2.7v-11.2
			c0-2-0.5-3.1-1.5-3.6l-1.3,1.2l-0.4-0.5c1.5-1.4,3.2-2.8,4.5-4.1c1.8,0.9,3,2.4,3.4,4.6l4.8-4.6c1.3,1.2,4.3,2.4,6.6,3.1v0.3
			c-0.9,0.5-1.3,1.3-1.3,3.1v10.6c0,2.2,0.3,3.1,1.4,3.3l0.9-1L1520.6,1036.1z"/>
		<path class="st0" d="M1516.2,1041.2l-0.3,0.3c-2.2-0.7-4-1.8-4-6.7v-12.1c-1-0.3-2-0.8-2.7-1.3l0.3-0.3c0.7,0.5,2,1.1,2.7,1.3
			v12.1C1512.3,1039.3,1513.8,1040.4,1516.2,1041.2z"/>
		<path class="st0" d="M1502.2,1034.7c0,0.3,0,0.8-0.1,1.2l-0.3,0.4c0-0.4,0-1.2,0-1.5v-10.7c0-1.4-0.3-2.4-0.9-2.9l0.4-0.3
			c0.6,0.5,0.9,1.5,0.9,2.9V1034.7z"/>
		<path class="st0" d="M1506.6,1041.2l-0.3,0.4c-1.4-1-3.9-2.3-5.7-2.8l0.4-0.3C1502.6,1038.9,1505,1040.1,1506.6,1041.2z"/>
		<polygon class="st0" points="1486.4,1026.2 1486,1026.5 1482.4,1021.7 1482.8,1021.5 		"/>
		<path class="st0" d="M1496.1,1041.2l-0.3,0.3c-2.2-0.9-3.3-2.5-3.7-3.6l0.3-0.4C1492.9,1039,1493.9,1040.3,1496.1,1041.2z"/>
		<path class="st0" d="M1487.6,1041.3l-0.4,0.3c-2.1-0.6-5.3-2.5-5.3-7.4c0-1.4,0.3-2.4,0.9-3.2l0.3-0.2c-0.7,1.2-0.7,2.7-0.7,3.2
			C1482.3,1038.7,1485.6,1040.6,1487.6,1041.3z"/>
		<path class="st0" d="M1474.8,1036.2l-0.4-0.1v-13.7c-0.5-0.1-1.2-0.6-1.6-0.9l0.4-0.4c0.4,0.2,1,0.6,1.6,0.9V1036.2z"/>
		<path class="st0" d="M1481.5,1019.6c-0.9,0.5-1.2,0.9-1.2,2.5v14.2c0,0-5.6,2.1-8.7,4.1c-3.4-1.4-5.7-3.6-5.7-8.4v-7.5
			c0-2.8-0.4-4.1-1.8-4.7l-1.2,1.1l-0.4-0.5c1.8-1.6,2.8-2.6,4.6-4.1c2.1,1.3,3.5,3.1,3.5,6.5v7.5c0,4.3,1.4,5.9,5,6.9l0.2-0.1
			v-15.9c-0.6-0.2-1.5-0.7-2.1-1.3l-1.2,1.1l-0.4-0.5c1.6-1.5,3.2-3,4.5-4.2c1.2,1.3,3.5,2.6,5.1,3V1019.6z"/>
		<path class="st0" d="M1470.7,1041.2l-0.4,0.4c-3.6-1.5-5.7-4.1-5.7-8.5v-7.5c0-2.8-0.5-3.8-1.2-4.3l0.4-0.3
			c0.7,0.6,1.2,1.4,1.2,4.2v7.7C1465,1037.6,1467.5,1040.1,1470.7,1041.2z"/>
		<path class="st0" d="M1451.1,1018l-0.4,0.2l-4.4-4.9c-1.3-1.5-3.3-3.1-4.3-3.8l0.3-0.3c1,0.6,2.9,2.2,4.3,3.7L1451.1,1018z"/>
		<path class="st0" d="M1445.4,1035.2l0,0.7l-0.4,0.6c0-0.3,0-0.6,0-1v-12.8l0.4-0.3V1035.2z"/>
		<path class="st0" d="M1427.1,1013.8l-1.7,4.5l-0.3-0.2l1.6-4.1c-0.6-1.2-1.3-2.2-3.7-2.2c-0.5,0-0.8,0-1.2,0.1l0.2-0.2
			c0.3-0.1,0.8-0.3,1.4-0.3C1425.5,1011.3,1426.4,1012.3,1427.1,1013.8z"/>
		<path class="st0" d="M1451.7,1041.3l-0.4,0.4c-2.1-1.5-4.7-2.6-7.5-2.7l0.4-0.4C1447.3,1038.7,1449.6,1039.9,1451.7,1041.3z"/>
		<path class="st0" d="M1440.1,1041.3l-0.4,0.4c-3-0.2-4.3-2.4-5.1-4.7l-1.9-5.1h-10.3l0.2-0.5h10.4l2,5.3
			C1435.8,1038.8,1437.1,1041.1,1440.1,1041.3z"/>
		<path class="st0" d="M1418.1,1021.4c-0.3,0.5-0.4,0.9-0.4,1.8c0,0.6,0.1,1.1,0.3,1.6l-0.4,0.4c-0.2-0.5-0.3-1.1-0.3-1.6
			c0-1,0.3-1.6,0.6-2.1L1418.1,1021.4z"/>
		<path class="st0" d="M1422.9,1024.6l-3.6,9.6l-0.5,0.1l3.6-9.5c-0.4-0.6-1.1-1-1.9-1c-0.4,0-0.3,0-0.6,0l0.2-0.2
			c0.2-0.1,0.4-0.2,0.7-0.2C1421.6,1023.4,1422.1,1023.7,1422.9,1024.6z"/>
		<path class="st0" d="M1423.1,1041.4l-0.4,0.4c-1-0.7-2.9-1.4-5.7-1.4c-1.1,0-1.7,0-2.3,0.2l0.4-0.2c0.5-0.2,1.1-0.3,2.1-0.3
			C1419.6,1040,1421.8,1040.5,1423.1,1041.4z"/>
		<path class="st0" d="M1549.7,1023.9l-8.1,5.8v4.8c1.5,0.6,3.6,1.6,5.2,2.4l1.2-1.5l0.5,0.4c-1,1.2-3,3.6-3.8,4.6
			c-2.4-1.3-5.9-2.7-8.9-3.3v-0.3c0.8-0.4,1.2-1,1.2-2.4v-13.9c2.6-1,5.5-2.5,8.4-4.2C1546.6,1018.9,1547.9,1021,1549.7,1023.9z
			 M1545.5,1025.8l-3.8-6.9l-0.2,0.1v9.7L1545.5,1025.8z"/>
		<path class="st0" d="M1500.4,1036.1l-3.5,4.2c-2.1-0.9-3.2-2.2-3.8-4.4l-4.6,4.4c-3.6-1.3-5.3-3.8-5.3-7.1c0-3.2,1.7-5.5,4.7-7
			l-4.1-5.6v-0.1c1.3-1.1,2.2-2,3-3.1c0.8,0.9,1.4,1.2,2.4,1.2c1.2,0,2.3-1,3.2-2.4c1.6,1.2,4.4,2.4,6.5,2.9v0.3
			c-0.9,0.3-1.3,1.3-1.3,2.6v10.9c0,2.4,0.1,3.3,1.5,3.7l0.9-1.1L1500.4,1036.1z M1492.9,1025.3v-3.9c-0.9-0.4-2-1-2.7-1.5
			c-0.8,1.1-1.7,1.8-2.5,1.8c-1,0-1.9-0.2-2.6-0.4l0,0l3.5,4.7C1489.9,1025.5,1491.4,1025.3,1492.9,1025.3z M1492.9,1035.2v-9.1
			c-3.3,0-5.5,1.3-5.5,5c0,2.9,1.6,5,3.7,5.6L1492.9,1035.2z"/>
		<path class="st0" d="M1462,1021.1c-0.9,0.3-1.2,1.2-1.2,3v11.4c-2.7,1.2-4.6,2.2-8.3,4.9c-1.8-1.3-4.5-2.6-7.4-2.7v-0.3
			c0.9-0.4,1.2-1.5,1.2-2.7v-13c1.9-1,4.3-2.4,6.4-3.7l-4.7-5.3c-1.6-1.8-3.1-3.2-4.7-4.2v-0.1c2.5-0.2,5.1-1.1,6.3-2.1h0.1v0.6
			c0,1.2,0.8,2.2,1.9,3.5l8,8.6c0.6,0.6,1.3,1.3,2.4,2V1021.1z M1456.1,1037.2v-15.5l-3-3.2c-1,0.6-1.5,1.1-2.2,1.5v15.1
			c1.5,0.4,3.7,1.5,4.7,2.4L1456.1,1037.2z"/>
		<path class="st0" d="M1444.2,1035.6c-1.1,1.4-2.1,2.8-3.4,4.8c-2.2-0.2-3.7-1.4-4.8-4.2l-2.1-5.6h-11.8l-1.8,4.6
			c2.2,0.1,4.3,0.6,5.6,1.6l0.9-1.1l0.5,0.4c-1.1,1.2-2.1,2.5-3.5,4.4c-1.6-1.1-3.8-1.3-5.6-1.3c-2.2,0-3.8,0.3-5,1.2l-0.1-0.1
			c1.1-3.1,3.3-4.7,6.3-5l4.2-11.2c-0.5-0.9-1.3-1.4-2.1-1.4c-1.2,0-2,0.4-2.6,1.4h-0.1c-0.2-0.4-0.3-1.1-0.3-1.5
			c0-2.7,1.9-3.9,4.2-3.9c1.2,0,2.1,0.4,2.7,1l2.5-6.5c-0.8-1.6-1.8-2.4-3.8-2.4c-1.8,0-3.7,0.6-4.7,2l-0.2-0.1
			c0.5-3.6,3.8-5.9,7.1-5.9c1.9,0,3.4,0.7,4.3,1.7c0.3-0.5,0.8-1.1,1.3-1.2l0.2,0.1c-0.4,0.5-0.5,1.1-0.5,1.8c0,0.8,0.2,1.7,0.5,2.6
			l7.1,19.8c1.1,3,1.9,4.4,3.5,4.4c0.6,0,1-0.1,1.3-0.3L1444.2,1035.6z M1432.6,1026.8l-4.3-12.8l-4.8,12.8H1432.6z"/>
		<polygon class="st0" points="1544.2,1025.8 1543.9,1026.1 1542.3,1023.2 1542.3,1022.3 		"/>
		<path class="st0" d="M1492,1024.6h-0.4v-2.1c-0.5-0.2-1.3-0.6-2-1.1l0.3-0.3c0.4,0.3,1.4,0.8,2.1,1.1V1024.6z"/>
		<path class="st0" d="M1492,1035.1l-0.4,0.3v-8c-0.7,0-1.2,0-1.9,0.3l0.1-0.2c0.5-0.3,1.2-0.5,2.1-0.5V1035.1z"/>
		<polygon class="st0" points="1455.3,1036.1 1454.9,1035.9 1454.9,1022.7 1452.3,1020 1452.7,1019.8 1455.3,1022.5 		"/>
		<polygon class="st0" points="1431.1,1025.9 1430.6,1025.9 1427.9,1017.6 1428.1,1016.9 		"/>
	</g>
</g>
</svg>
